<svg xmlns="http://www.w3.org/2000/svg" width="31.803" height="30.262" viewBox="0 0 31.803 30.262">
  <g id="bx-dislike" transform="translate(0.5 0.5)">
    <path id="Path_169" data-name="Path 169" d="M19.08,53.262H39.575a3.1,3.1,0,0,0,2.885-2l4.246-11.322a1.54,1.54,0,0,0,.1-.541v-3.08a3.083,3.083,0,0,0-3.08-3.08H35.079l1.728-5.186A3.08,3.08,0,0,0,33.884,24H31.4a1.545,1.545,0,0,0-1.184.554l-7.239,8.686h-3.9A3.083,3.083,0,0,0,16,36.321V50.182A3.083,3.083,0,0,0,19.08,53.262ZM32.124,27.08h1.763l-2.406,7.214a1.54,1.54,0,0,0,1.46,2.027H43.722v2.8l-4.148,11.06H25.241V35.338Zm-9.963,9.241V50.182H19.08l0-13.861Z" transform="translate(-16 -24)" fill="#454444" stroke="#fff" stroke-width="1"/>
  </g>
</svg>
