<svg xmlns="http://www.w3.org/2000/svg" width="21.208" height="22.975" viewBox="0 0 21.208 22.975">
  <g id="calendar" transform="translate(-24 -12)">
    <path id="Path_402" data-name="Path 402" d="M43.441,13.767H39.906V12H38.139v1.767H31.069V12H29.3v1.767H25.767A1.773,1.773,0,0,0,24,15.535V33.208a1.773,1.773,0,0,0,1.767,1.767H43.441a1.773,1.773,0,0,0,1.767-1.767V15.535A1.773,1.773,0,0,0,43.441,13.767Zm0,19.441H25.767V20.837H43.441Zm0-14.139H25.767V15.535H29.3V17.3h1.767V15.535h7.069V17.3h1.767V15.535h3.535Z" fill="#fff"/>
  </g>
</svg>
