<svg xmlns="http://www.w3.org/2000/svg" width="21.937" height="27.633" viewBox="0 0 21.937 27.633">
  <path id="clipboard-list-svgrepo-com_1_" data-name="clipboard-list-svgrepo-com (1)" d="M9.272,5.848a6.273,6.273,0,0,0-2.717.31A2.848,2.848,0,0,0,5.31,7.4a7.076,7.076,0,0,0-.31,3V24.076a7.076,7.076,0,0,0,.31,3,2.848,2.848,0,0,0,1.245,1.245,7.075,7.075,0,0,0,3,.31H20.38a7.076,7.076,0,0,0,3-.31,2.848,2.848,0,0,0,1.245-1.245,7.076,7.076,0,0,0,.31-3V10.405a7.075,7.075,0,0,0-.31-3,2.848,2.848,0,0,0-1.245-1.245,6.273,6.273,0,0,0-2.717-.31m-11.393,0V8.7H20.665V5.848m-11.393,0V5.431A2.431,2.431,0,0,1,11.7,3h6.53a2.431,2.431,0,0,1,2.431,2.431v.417m0,8.544H17.817m2.848,7.12H17.817m-8.544-7.12L10.7,15.817l2.848-2.848M9.272,21.513,10.7,22.937l2.848-2.848" transform="translate(-4 -2)" fill="none" stroke="#fff" stroke-linecap="round" stroke-linejoin="round" stroke-width="2"/>
</svg>
