<svg id="comment-bubble" xmlns="http://www.w3.org/2000/svg" width="26.673" height="26.673" viewBox="0 0 26.673 26.673">
  <path id="Path_166" data-name="Path 166" d="M32.753,32.753h-.889a15.191,15.191,0,0,1-9.948-3.71l-.936-.811q-.78.076-1.564.076a14.736,14.736,0,0,1-9.366-3.2A10.211,10.211,0,0,1,6.08,17.194a10.211,10.211,0,0,1,3.971-7.917,14.736,14.736,0,0,1,9.366-3.2,14.736,14.736,0,0,1,9.366,3.2,10.211,10.211,0,0,1,3.971,7.917,9.511,9.511,0,0,1-1.171,4.565,11.2,11.2,0,0,1-2.615,3.2,15.849,15.849,0,0,0,3.526,5.39l.26.26Zm-11.2-6.378L23.08,27.7a13.413,13.413,0,0,0,7.5,3.215,17.643,17.643,0,0,1-3.48-5.867l-.244-.693.512-.393a8.522,8.522,0,0,0,3.6-6.767c0-5.148-5.185-9.336-11.558-9.336S7.858,12.046,7.858,17.194s5.185,9.336,11.558,9.336a14.392,14.392,0,0,0,1.743-.106Z" transform="translate(-6.08 -6.08)" fill="#454444"/>
</svg>
