<svg xmlns="http://www.w3.org/2000/svg" width="205.4" height="42" viewBox="0 0 205.4 42">
  <g id="Group_435" data-name="Group 435" transform="translate(-123.6 -22)">
    <g id="book-opened-svgrepo-com_1_" data-name="book-opened-svgrepo-com (1)" transform="translate(123.6 23.499)">
      <path id="Path_408" data-name="Path 408" d="M18.3,30.526,9.079,27.891a.638.638,0,1,0-.349,1.227l9.223,2.635a.659.659,0,0,0,.175.024.638.638,0,0,0,.175-1.251Z" transform="translate(-2.997 -10.101)" fill="#fff"/>
      <path id="Path_409" data-name="Path 409" d="M18.3,37.526,9.079,34.892a.638.638,0,0,0-.349,1.227l9.223,2.635a.66.66,0,0,0,.175.024.638.638,0,0,0,.175-1.251Z" transform="translate(-2.997 -12.639)" fill="#fff"/>
      <path id="Path_410" data-name="Path 410" d="M18.3,23.526,9.079,20.891a.638.638,0,1,0-.349,1.227l9.223,2.635a.66.66,0,0,0,.175.024.638.638,0,0,0,.175-1.251Z" transform="translate(-2.997 -7.564)" fill="#fff"/>
      <path id="Path_411" data-name="Path 411" d="M18.3,16.526,9.079,13.891a.638.638,0,1,0-.349,1.227l9.223,2.635a.66.66,0,0,0,.175.024.638.638,0,0,0,.175-1.251Z" transform="translate(-2.997 -5.026)" fill="#fff"/>
      <path id="Path_412" data-name="Path 412" d="M39.6,31.739a.661.661,0,0,0,.175-.024L49,29.08a.638.638,0,0,0-.349-1.227l-9.223,2.635a.638.638,0,0,0,.175,1.251Z" transform="translate(-14.124 -10.088)" fill="#fff"/>
      <path id="Path_413" data-name="Path 413" d="M48.951,34.892l-9.223,2.635a.638.638,0,0,0,.175,1.251.661.661,0,0,0,.175-.024L49.3,36.119a.638.638,0,1,0-.35-1.227Z" transform="translate(-14.234 -12.639)" fill="#fff"/>
      <path id="Path_414" data-name="Path 414" d="M48.951,20.891l-9.223,2.635a.638.638,0,0,0,.175,1.251.661.661,0,0,0,.175-.024L49.3,22.117a.638.638,0,1,0-.35-1.227Z" transform="translate(-14.234 -7.564)" fill="#fff"/>
      <path id="Path_415" data-name="Path 415" d="M48.951,13.891l-9.223,2.635a.638.638,0,0,0,.175,1.251.661.661,0,0,0,.175-.024L49.3,15.118a.638.638,0,1,0-.35-1.227Z" transform="translate(-14.234 -5.027)" fill="#fff"/>
      <path id="Path_416" data-name="Path 416" d="M40.3.264A1.28,1.28,0,0,0,39.524,0,1.3,1.3,0,0,0,39.2.043L20.4,5.056,1.6.043A1.275,1.275,0,0,0,0,1.275V33.15a1.276,1.276,0,0,0,.946,1.232l16.494,4.4a3.178,3.178,0,0,0,5.92,0l16.494-4.4A1.276,1.276,0,0,0,40.8,33.15V1.275A1.277,1.277,0,0,0,40.3.264ZM20.4,34.426a1.28,1.28,0,0,0,.329-.043l18.8-5.013v1.246L20.4,35.678,1.275,30.616V29.37l18.8,5.012A1.253,1.253,0,0,0,20.4,34.426ZM1.274,1.276h0l18.487,4.93V32.98L1.275,28.051ZM22.3,37.744a1.907,1.907,0,0,1-1.14,1.623l-.431.115a1.288,1.288,0,0,1-.658,0l-.431-.115a1.907,1.907,0,0,1-1.14-1.623L1.275,33.15V31.935l18.962,5.02a.644.644,0,0,0,.326,0l18.962-5.02V33.15ZM21.038,32.98V6.205l18.488-4.93V28.051Z" transform="translate(0 -1.5)" fill="#fff"/>
    </g>
    <line id="Line_187" data-name="Line 187" y2="36" transform="translate(175.5 24.5)" fill="none" stroke="#fff" stroke-width="1"/>
    <text id="E_GYAAN" data-name="E GYAAN" transform="translate(187 55)" fill="#fff" font-size="35" font-family="Roboto-Bold, Roboto" font-weight="700"><tspan x="0" y="0">E GYAAN</tspan></text>
  </g>
</svg>
