<svg xmlns="http://www.w3.org/2000/svg" xmlns:xlink="http://www.w3.org/1999/xlink" width="75" height="75" viewBox="0 0 75 75">
  <defs>
    <filter id="Rectangle_690" x="0" y="0" width="75" height="75" filterUnits="userSpaceOnUse">
      <feOffset dy="3" input="SourceAlpha"/>
      <feGaussianBlur stdDeviation="3" result="blur"/>
      <feFlood flood-opacity="0.161"/>
      <feComposite operator="in" in2="blur"/>
      <feComposite in="SourceGraphic"/>
    </filter>
  </defs>
  <g id="Group_466" data-name="Group 466" transform="translate(-34 -306)">
    <g transform="matrix(1, 0, 0, 1, 34, 306)" filter="url(#Rectangle_690)">
      <rect id="Rectangle_690-2" data-name="Rectangle 690" width="57" height="57" rx="7" transform="translate(9 6)" fill="#fff"/>
    </g>
    <path id="Icon_core-list-rich" data-name="Icon core-list-rich" d="M7.863,1.687H1.125V8.425H7.863Zm-1.8,4.941H2.922V3.484H6.066Zm1.8,4.941H1.125v6.738H7.863Zm-1.8,4.941H2.922V13.367H6.066Zm1.8,4.941H1.125V28.19H7.863Zm-1.8,4.941H2.922V23.249H6.066ZM10.109,1.687H28.077v1.8H10.109Zm0,4.941H24.483v1.8H10.109Zm0,4.941H28.077v1.8H10.109Zm0,4.941H24.483v1.8H10.109Zm0,9.882H24.483v1.8H10.109Zm0-4.941H28.077v1.8H10.109Z" transform="translate(57.318 325.313)" fill="#0e4383"/>
  </g>
</svg>
