<svg xmlns="http://www.w3.org/2000/svg" width="26.067" height="26.11" viewBox="0 0 26.067 26.11">
  <g id="mail-reception-svgrepo-com" transform="translate(-141.713 -137)">
    <path id="Path_395" data-name="Path 395" d="M145.984,137.088,163.529,137v7.732s2.106.91,2.36,1.076c.762.5,1.891.705,1.891,3.256v11.418a2.628,2.628,0,0,1-2.628,2.628h-20.8a2.628,2.628,0,0,1-2.628-2.628V149.7c0-.19.021-.536,0-.952a2.641,2.641,0,0,1,1.048-2.476,9.808,9.808,0,0,1,1.8-.914c.79-.356,1.418-.631,1.418-.631Z" fill="#2d509f"/>
    <path id="Path_396" data-name="Path 396" d="M193.629,399.8l-1.365.61-.014.007a3.456,3.456,0,0,0-1.15.653l2.533,1.369V399.8Zm18.872.6-1.326-.589v2.624l2.49-1.347A5.94,5.94,0,0,0,212.5,400.4Z" transform="translate(-47.645 -253.53)" fill="#2d509f"/>
    <path id="Path_399" data-name="Path 399" d="M167.869,147.621c0-.007,0-.011,0-.014-.307-1.065-1.312-1.563-2.215-2.011l-.014-.007-1.926-.861V137l-17.545.088v7.637l-1.912.854c-1.1.434-2.353,1.139-2.353,2.734v12.173a2.628,2.628,0,0,0,2.624,2.624h20.812a2.628,2.628,0,0,0,2.624-2.624V148.312A2.485,2.485,0,0,0,167.869,147.621Zm-4.159-1.344,1.326.593a6.039,6.039,0,0,1,1.164.684l-2.49,1.347Zm-16.134-1.108v-6.677l14.723-.074v11.245l-7.02,3.8a.728.728,0,0,1-.691,0l-7.013-3.792Zm-1.411,1.1v2.639l-2.533-1.372A28.088,28.088,0,0,1,146.165,146.27Zm20.385,14.215a1.213,1.213,0,0,1-1.213,1.213H144.524a1.213,1.213,0,0,1-1.213-1.213V148.969l10.6,5.739a2.147,2.147,0,0,0,2.039,0l10.6-5.739Z" transform="translate(-0.181)" fill="#fff"/>
  </g>
</svg>
