<svg xmlns="http://www.w3.org/2000/svg" width="26.934" height="23.528" viewBox="0 0 26.934 23.528">
  <path id="network-cellular-svgrepo-com" d="M3.31,2.024a.837.837,0,0,0-.579.256l-.4.421A8.658,8.658,0,0,0-.023,8.718a8.658,8.658,0,0,0,2.354,6.017l.4.421A.835.835,0,1,0,3.935,14l-.395-.421a7.294,7.294,0,0,1,0-9.719l.395-.421A.835.835,0,0,0,3.31,2.024Zm20.266,0a.827.827,0,0,0-.6.23.84.84,0,0,0-.026,1.184l.4.421a7.294,7.294,0,0,1,0,9.719l-.4.421a.837.837,0,0,0,1.21,1.157l.4-.414A8.709,8.709,0,0,0,26.91,8.718,8.693,8.693,0,0,0,24.563,2.7l-.4-.421a.84.84,0,0,0-.585-.256ZM5.835,4.535a.851.851,0,0,0-.526.217l-.46.421A4.761,4.761,0,0,0,3.33,8.75a4.8,4.8,0,0,0,1.519,3.511l.46.421A.838.838,0,1,0,6.44,11.446l-.46-.414a3.392,3.392,0,0,1,0-4.629l.46-.414a.836.836,0,0,0-.6-1.453Zm15.137,0a.853.853,0,0,0-.579.27.84.84,0,0,0,.059,1.184l.46.414a3.405,3.405,0,0,1,0,4.629l-.46.414a.838.838,0,1,0,1.131,1.236l.454-.421A4.8,4.8,0,0,0,23.557,8.75a4.738,4.738,0,0,0-1.519-3.577l-.454-.421a.856.856,0,0,0-.612-.217Zm-12.96,2.5a1.264,1.264,0,0,0-.986,2.052L11.8,15.05v10.5h3.367V15.05L19.94,9.086a1.264,1.264,0,0,0-.986-2.052Zm2.63,2.525h5.681l-2.841,3.557Zm0,0" transform="translate(0.023 -2.023)" fill="#fff"/>
</svg>
