<svg id="share" xmlns="http://www.w3.org/2000/svg" width="26.669" height="26.673" viewBox="0 0 26.669 26.673">
  <g id="Group_144" data-name="Group 144" transform="translate(0 0)">
    <path id="Path_167" data-name="Path 167" d="M22.5,1.661a2.5,2.5,0,1,0,2.5,2.5A2.5,2.5,0,0,0,22.5,1.661Zm-4.167,2.5a4.167,4.167,0,1,1,1.005,2.714l-11.2,5.2a4.165,4.165,0,0,1,0,2.507l11.2,5.2a4.167,4.167,0,1,1-.813,1.46l-11.2-5.2a4.167,4.167,0,1,1,0-5.427l11.2-5.2a4.167,4.167,0,0,1-.192-1.253ZM4.164,10.828a2.5,2.5,0,1,0,2.5,2.5A2.5,2.5,0,0,0,4.164,10.828ZM22.5,20A2.5,2.5,0,1,0,25,22.5,2.5,2.5,0,0,0,22.5,20Z" transform="translate(0.003 0.007)" fill="#454444"/>
  </g>
</svg>
