<svg xmlns="http://www.w3.org/2000/svg" width="138.132" height="37.61" viewBox="0 0 138.132 37.61">
  <g id="Group_451" data-name="Group 451" transform="translate(9522.816 -7786.196)">
    <path id="Path_207" data-name="Path 207" d="M93.06,82.314H74.847v5.94h6.087v12.708h5.938V88.254H93.06v-5.94Zm17.8,18.6-5.74-18.6H97.889l-5.739,18.6h5.939L101.5,87.688l3.416,13.224Zm18.183-18.6H110.827v5.94h6.087v12.708h5.937V88.254h6.188Zm17.6,18.6-5.741-18.6h-7.225l-5.741,18.6h5.941l3.414-13.224,3.413,13.224h5.94ZM30.565,102.257c1.294-5.5,2.253-10.86,2.253-10.86a3.718,3.718,0,0,0-.483-2.976c-.965-1.206-3.941-.8-3.941-.8s-4.622.055-9.333.622c-4.2.506-8.477,1.338-10.055,1.658a12.48,12.48,0,0,0-.5,3.471c0,8.28,8.275,15.305,19.762,17.815C28.869,108.993,29.775,105.6,30.565,102.257Z" transform="translate(-9531.32 7711.632)" fill="#fff" fill-rule="evenodd"/>
    <path id="Path_208" data-name="Path 208" d="M39.562,96.688c-.055-6.66.131-12.87.131-12.87a1.486,1.486,0,0,1,.383-1.393,4.264,4.264,0,0,1,2.03-.457s5.506.155,11.677.946c4.505.579,9.377,1.508,11.577,1.948C61.315,77.625,50.6,72.453,38.024,72.453c-12.629,0-23.371,5.213-27.379,12.493,1.929-.388,7.172-1.411,12-2.031,6.171-.791,11.676-.946,11.676-.946a4.265,4.265,0,0,1,2.031.457,1.486,1.486,0,0,1,.383,1.393s.187,6.211.131,12.87c-.044,5.1-.2,10.457-.3,13.35q.723.024,1.455.024c.616,0,1.227-.017,1.834-.042-.1-2.9-.252-8.24-.3-13.334Z" transform="translate(-9531.778 7713.743)" fill="#fff" fill-rule="evenodd"/>
    <path id="Path_209" data-name="Path 209" d="M65.729,89.666c-4.711-.567-9.334-.622-9.334-.622s-2.975-.4-3.942.8a3.718,3.718,0,0,0-.481,2.976s.959,5.364,2.253,10.86c.779,3.308,1.673,6.655,2.276,8.848,11.3-2.576,19.4-9.544,19.4-17.736a12.5,12.5,0,0,0-.524-3.551C73.559,90.88,69.607,90.134,65.729,89.666Z" transform="translate(-9540.598 7710.206)" fill="#fff" fill-rule="evenodd"/>
  </g>
</svg>
