<svg xmlns="http://www.w3.org/2000/svg" width="26.092" height="22.669" viewBox="0 0 26.092 22.669">
  <g id="upload" transform="translate(0 -11.989)">
    <g id="Group_147" data-name="Group 147" transform="translate(0 11.989)">
      <path id="Path_173" data-name="Path 173" d="M.815,118.8a.815.815,0,0,1,.815.815v4.077a1.631,1.631,0,0,0,1.631,1.631H22.831a1.631,1.631,0,0,0,1.631-1.631v-4.077a.815.815,0,1,1,1.631,0v4.077a3.262,3.262,0,0,1-3.262,3.262H3.262A3.262,3.262,0,0,1,0,123.692v-4.077a.815.815,0,0,1,.815-.815Z" transform="translate(0 -104.285)" fill="#fff"/>
      <path id="Path_174" data-name="Path 174" d="M59.124,12.229a.815.815,0,0,1,1.155,0l4.892,4.892a.816.816,0,1,1-1.155,1.155l-3.5-3.5V29.114a.815.815,0,1,1-1.631,0V14.774l-3.5,3.5a.816.816,0,1,1-1.155-1.155l4.892-4.892Z" transform="translate(-46.655 -11.989)" fill="#fff"/>
    </g>
  </g>
</svg>
