<svg xmlns="http://www.w3.org/2000/svg" width="18.934" height="26.507" viewBox="0 0 18.934 26.507">
  <g id="user" transform="translate(-36 -12)">
    <path id="Path_400" data-name="Path 400" d="M60.627,13.893a4.733,4.733,0,1,1-4.733,4.733,4.733,4.733,0,0,1,4.733-4.733m0-1.893a6.627,6.627,0,1,0,6.627,6.627A6.627,6.627,0,0,0,60.627,12Z" transform="translate(-15.16)" fill="#fff"/>
    <path id="Path_401" data-name="Path 401" d="M54.934,119.36H53.04v-4.733a4.733,4.733,0,0,0-4.733-4.733h-5.68a4.733,4.733,0,0,0-4.733,4.733v4.733H36v-4.733A6.627,6.627,0,0,1,42.627,108h5.68a6.627,6.627,0,0,1,6.627,6.627Z" transform="translate(0 -80.853)" fill="#fff"/>
  </g>
</svg>
